<svg xmlns="http://www.w3.org/2000/svg" style="display: none;">
  <symbol id="icon-arrow" viewBox="0 0 24 24" fill="none">
    <path d="M12.2048 7.29258L18.1189 15.7412C18.49 16.2715 18.1107 17 17.4635 17L6.53652 17C5.88931 17 5.50998 16.2715 5.88114 15.7412L11.7952 7.29258C11.8947 7.1504 12.1053 7.1504 12.2048 7.29258Z" fill="currentColor"/>
  </symbol>

  <symbol id="icon-call" viewBox="0 0 24 24" fill="none">
    <path d="M18.328 22.4998C17.413 22.4998 16.1277 22.1689 14.203 21.0936C11.8625 19.7811 10.0522 18.5694 7.72437 16.2476C5.48 14.0047 4.38781 12.5525 2.85922 9.77092C1.13234 6.63029 1.42672 4.98404 1.75578 4.28045C2.14766 3.43951 2.72609 2.93654 3.47375 2.43732C3.89841 2.15909 4.34781 1.92058 4.81625 1.72482C4.86312 1.70467 4.90672 1.68545 4.94563 1.6681C5.17766 1.56357 5.52922 1.4056 5.97453 1.57435C6.27172 1.68592 6.53703 1.9142 6.95234 2.32435C7.80406 3.16435 8.96797 5.03513 9.39734 5.95388C9.68562 6.5731 9.87641 6.98185 9.87687 7.44029C9.87687 7.97701 9.60687 8.39091 9.27922 8.83763C9.21781 8.92154 9.15687 9.0017 9.09781 9.07951C8.74109 9.54826 8.66281 9.68373 8.71437 9.9256C8.81891 10.4117 9.59844 11.8587 10.8795 13.137C12.1606 14.4153 13.5659 15.1456 14.0539 15.2497C14.3061 15.3036 14.4444 15.222 14.9281 14.8526C14.9975 14.7997 15.0687 14.7448 15.1433 14.69C15.643 14.3183 16.0377 14.0553 16.5617 14.0553H16.5645C17.0206 14.0553 17.4111 14.2531 18.058 14.5794C18.9017 15.005 20.8287 16.1539 21.6739 17.0065C22.085 17.4209 22.3142 17.6853 22.4262 17.982C22.595 18.4287 22.4361 18.7789 22.3325 19.0133C22.3152 19.0522 22.2959 19.0948 22.2758 19.1422C22.0785 19.6098 21.8386 20.0582 21.5591 20.4819C21.0608 21.2272 20.5559 21.8042 19.7131 22.1965C19.2803 22.4012 18.8067 22.505 18.328 22.4998Z" fill="currentColor"/>
  </symbol>

  <symbol id="icon-location" viewBox="0 0 24 24" fill="none">
    <path d="M12 12C12.55 12 13.0208 11.8042 13.4125 11.4125C13.8042 11.0208 14 10.55 14 10C14 9.45 13.8042 8.97917 13.4125 8.5875C13.0208 8.19583 12.55 8 12 8C11.45 8 10.9792 8.19583 10.5875 8.5875C10.1958 8.97917 10 9.45 10 10C10 10.55 10.1958 11.0208 10.5875 11.4125C10.9792 11.8042 11.45 12 12 12ZM12 22C9.31667 19.7167 7.3125 17.5958 5.9875 15.6375C4.6625 13.6792 4 11.8667 4 10.2C4 7.7 4.80417 5.70833 6.4125 4.225C8.02083 2.74167 9.88333 2 12 2C14.1167 2 15.9792 2.74167 17.5875 4.225C19.1958 5.70833 20 7.7 20 10.2C20 11.8667 19.3375 13.6792 18.0125 15.6375C16.6875 17.5958 14.6833 19.7167 12 22Z" fill="currentColor"/>
  </symbol>

  <symbol id="icon-mail" viewBox="0 0 24 24" fill="none">
    <path d="M19.8749 3.7502H4.12493C3.42896 3.75095 2.76172 4.02775 2.26959 4.51987C1.77747 5.01199 1.50067 5.67924 1.49993 6.3752V17.6252C1.50067 18.3212 1.77747 18.9884 2.26959 19.4805C2.76172 19.9727 3.42896 20.2495 4.12493 20.2502H19.8749C20.5709 20.2495 21.2381 19.9727 21.7303 19.4805C22.2224 18.9884 22.4992 18.3212 22.4999 17.6252V6.3752C22.4992 5.67924 22.2224 5.01199 21.7303 4.51987C21.2381 4.02775 20.5709 3.75095 19.8749 3.7502V3.7502ZM19.2102 8.09223L12.4602 13.3422C12.3286 13.4446 12.1666 13.5001 11.9999 13.5001C11.8332 13.5001 11.6712 13.4446 11.5396 13.3422L4.78961 8.09223C4.71031 8.03234 4.6437 7.95729 4.59365 7.87143C4.5436 7.78558 4.51111 7.69063 4.49808 7.59211C4.48504 7.49359 4.49171 7.39346 4.51771 7.29754C4.5437 7.20162 4.5885 7.11182 4.64951 7.03337C4.71051 6.95491 4.78649 6.88936 4.87304 6.84053C4.9596 6.79169 5.05499 6.76054 5.15369 6.74889C5.25238 6.73725 5.35241 6.74533 5.44795 6.77267C5.54349 6.80001 5.63265 6.84607 5.71024 6.90817L11.9999 11.8L18.2896 6.90817C18.4469 6.7894 18.6446 6.73731 18.84 6.76316C19.0354 6.78901 19.2127 6.89073 19.3337 7.04632C19.4547 7.20191 19.5095 7.39887 19.4864 7.59459C19.4633 7.79032 19.3641 7.96908 19.2102 8.09223Z" fill="currentColor"/>
  </symbol>

  <symbol id="icon-linkedin" viewBox="0 0 24 24" fill="none">
    <path d="M20.47 2H3.53C3.33958 1.99736 3.1505 2.03225 2.97357 2.10268C2.79663 2.17312 2.6353 2.27772 2.4988 2.41051C2.36229 2.5433 2.25328 2.70168 2.17799 2.87661C2.1027 3.05153 2.06261 3.23958 2.06 3.43V20.57C2.06261 20.7604 2.1027 20.9485 2.17799 21.1234C2.25328 21.2983 2.36229 21.4567 2.4988 21.5895C2.6353 21.7223 2.79663 21.8269 2.97357 21.8973C3.1505 21.9678 3.33958 22.0026 3.53 22H20.47C20.6604 22.0026 20.8495 21.9678 21.0264 21.8973C21.2034 21.8269 21.3647 21.7223 21.5012 21.5895C21.6377 21.4567 21.7467 21.2983 21.822 21.1234C21.8973 20.9485 21.9374 20.7604 21.94 20.57V3.43C21.9374 3.23958 21.8973 3.05153 21.822 2.87661C21.7467 2.70168 21.6377 2.5433 21.5012 2.41051C21.3647 2.27772 21.2034 2.17312 21.0264 2.10268C20.8495 2.03225 20.6604 1.99736 20.47 2V2ZM8.09 18.74H5.09V9.74H8.09V18.74ZM6.59 8.48C6.17626 8.48 5.77947 8.31564 5.48691 8.02309C5.19436 7.73053 5.03 7.33374 5.03 6.92C5.03 6.50626 5.19436 6.10947 5.48691 5.81691C5.77947 5.52436 6.17626 5.36 6.59 5.36C6.8097 5.33508 7.03218 5.35685 7.24288 5.42388C7.45357 5.49091 7.64774 5.60169 7.81266 5.74896C7.97757 5.89623 8.10953 6.07668 8.19987 6.27848C8.29022 6.48029 8.33692 6.6989 8.33692 6.92C8.33692 7.1411 8.29022 7.35971 8.19987 7.56152C8.10953 7.76332 7.97757 7.94377 7.81266 8.09104C7.64774 8.23831 7.45357 8.34909 7.24288 8.41612C7.03218 8.48315 6.8097 8.50491 6.59 8.48V8.48ZM18.91 18.74H15.91V13.91C15.91 12.7 15.48 11.91 14.39 11.91C14.0527 11.9125 13.7242 12.0183 13.4488 12.2132C13.1735 12.4081 12.9645 12.6827 12.85 13C12.7717 13.235 12.7378 13.4826 12.75 13.73V18.73H9.75C9.75 18.73 9.75 10.55 9.75 9.73H12.75V11C13.0225 10.5271 13.4189 10.1375 13.8964 9.8732C14.374 9.60888 14.9146 9.47985 15.46 9.5C17.46 9.5 18.91 10.79 18.91 13.56V18.74Z" fill="currentColor"/>
  </symbol>

  <symbol id="icon-facebook" viewBox="0 0 24 24" fill="none">
    <path d="M20.9 2H3.1C2.80826 2 2.52847 2.11589 2.32218 2.32218C2.11589 2.52847 2 2.80826 2 3.1V20.9C2 21.0445 2.02845 21.1875 2.08373 21.321C2.13901 21.4544 2.22004 21.5757 2.32218 21.6778C2.42433 21.78 2.54559 21.861 2.67905 21.9163C2.81251 21.9715 2.95555 22 3.1 22H12.68V14.25H10.08V11.25H12.68V9C12.6261 8.47176 12.6885 7.93813 12.8627 7.43654C13.0369 6.93495 13.3188 6.47755 13.6885 6.09641C14.0582 5.71528 14.5068 5.41964 15.0028 5.23024C15.4989 5.04083 16.0304 4.96225 16.56 5C17.3383 4.99521 18.1163 5.03528 18.89 5.12V7.82H17.3C16.04 7.82 15.8 8.42 15.8 9.29V11.22H18.8L18.41 14.22H15.8V22H20.9C21.0445 22 21.1875 21.9715 21.321 21.9163C21.4544 21.861 21.5757 21.78 21.6778 21.6778C21.78 21.5757 21.861 21.4544 21.9163 21.321C21.9715 21.1875 22 21.0445 22 20.9V3.1C22 2.95555 21.9715 2.81251 21.9163 2.67905C21.861 2.54559 21.78 2.42433 21.6778 2.32218C21.5757 2.22004 21.4544 2.13901 21.321 2.08373C21.1875 2.02845 21.0445 2 20.9 2V2Z" fill="currentColor"/>
  </symbol>

  <symbol id="icon-instagram" viewBox="0 0 24 24" fill="none">
    <path d="M12 9.52C11.5095 9.52 11.03 9.66545 10.6222 9.93795C10.2144 10.2105 9.89648 10.5978 9.70878 11.0509C9.52107 11.5041 9.47196 12.0028 9.56765 12.4838C9.66334 12.9649 9.89954 13.4068 10.2464 13.7536C10.5932 14.1005 11.0351 14.3367 11.5162 14.4323C11.9972 14.528 12.4959 14.4789 12.9491 14.2912C13.4022 14.1035 13.7895 13.7856 14.062 13.3778C14.3346 12.97 14.48 12.4905 14.48 12C14.48 11.6743 14.4159 11.3518 14.2912 11.0509C14.1666 10.7501 13.9839 10.4767 13.7536 10.2464C13.5233 10.0161 13.2499 9.83341 12.9491 9.70878C12.6482 9.58415 12.3257 9.52 12 9.52V9.52ZM21.93 7.07C21.9247 6.29776 21.7825 5.53257 21.51 4.81C21.3093 4.28126 20.9987 3.80109 20.5988 3.40119C20.1989 3.00128 19.7187 2.69072 19.19 2.49C18.4674 2.21746 17.7022 2.07526 16.93 2.07C15.64 2 15.26 2 12 2C8.74 2 8.36 2 7.07 2.07C6.29776 2.07526 5.53257 2.21746 4.81 2.49C4.28126 2.69072 3.80109 3.00128 3.40119 3.40119C3.00128 3.80109 2.69072 4.28126 2.49 4.81C2.21746 5.53257 2.07526 6.29776 2.07 7.07C2 8.36 2 8.74 2 12C2 15.26 2 15.64 2.07 16.93C2.08076 17.705 2.22277 18.4725 2.49 19.2C2.68983 19.7263 3.00013 20.2037 3.4 20.6C3.79819 21.0023 4.27939 21.3129 4.81 21.51C5.53257 21.7825 6.29776 21.9247 7.07 21.93C8.36 22 8.74 22 12 22C15.26 22 15.64 22 16.93 21.93C17.7022 21.9247 18.4674 21.7825 19.19 21.51C19.7206 21.3129 20.2018 21.0023 20.6 20.6C20.9999 20.2037 21.3102 19.7263 21.51 19.2C21.7823 18.4739 21.9244 17.7055 21.93 16.93C22 15.64 22 15.26 22 12C22 8.74 22 8.36 21.93 7.07V7.07ZM19.39 15.07C19.3579 15.6871 19.2262 16.295 19 16.87C18.8059 17.3497 18.5173 17.7854 18.1514 18.1514C17.7854 18.5173 17.3497 18.8059 16.87 19C16.2895 19.2136 15.6783 19.3318 15.06 19.35C14.27 19.35 14.06 19.35 12 19.35C9.94 19.35 9.73 19.35 8.94 19.35C8.32173 19.3318 7.71049 19.2136 7.13 19C6.6341 18.8157 6.18628 18.5217 5.82 18.14C5.45767 17.7813 5.17784 17.3479 5 16.87C4.78556 16.2901 4.67061 15.6782 4.66 15.06C4.66 14.27 4.66 14.06 4.66 12C4.66 9.94 4.66 9.73 4.66 8.94C4.67061 8.32183 4.78556 7.70988 5 7.13C5.18428 6.6341 5.47827 6.18628 5.86 5.82C6.22033 5.45962 6.65326 5.18009 7.13 5C7.71049 4.78641 8.32173 4.66821 8.94 4.65V4.65C9.73 4.65 9.94 4.65 12 4.65C14.06 4.65 14.27 4.65 15.06 4.65C15.6783 4.66821 16.2895 4.78641 16.87 5C17.3659 5.18428 17.8137 5.47827 18.18 5.86C18.5423 6.21875 18.8222 6.65213 19 7.13C19.2136 7.71049 19.3318 8.32173 19.35 8.94C19.35 9.73 19.35 9.94 19.35 12C19.35 14.06 19.42 14.27 19.39 15.06V15.07ZM17.79 7.63C17.6709 7.30698 17.4832 7.01364 17.2398 6.77021C16.9964 6.52678 16.703 6.33906 16.38 6.22C15.9365 6.06626 15.4693 5.99179 15 6C14.22 6 14 6 12 6C10 6 9.78 6 9 6C8.52827 6.00461 8.06107 6.09263 7.62 6.26C7.30193 6.37366 7.01169 6.55371 6.76858 6.7882C6.52547 7.02269 6.33506 7.30624 6.21 7.62C6.06478 8.06537 5.99383 8.5316 6 9C6 9.78 6 10 6 12C6 14 6 14.22 6 15C6.00991 15.4712 6.09777 15.9375 6.26 16.38C6.37906 16.703 6.56678 16.9964 6.81021 17.2398C7.05364 17.4832 7.34698 17.6709 7.67 17.79C8.09667 17.9469 8.54565 18.0347 9 18.05V18.05C9.78 18.05 10 18.05 12 18.05C14 18.05 14.22 18.05 15 18.05C15.4717 18.0454 15.9389 17.9574 16.38 17.79C16.703 17.6709 16.9964 17.4832 17.2398 17.2398C17.4832 16.9964 17.6709 16.703 17.79 16.38C17.9574 15.9389 18.0454 15.4717 18.05 15C18.05 14.22 18.05 14 18.05 12C18.05 10 18.05 9.78 18.05 9C18.0503 8.5278 17.9621 8.05972 17.79 7.62V7.63ZM12 15.82C11.4988 15.82 11.0026 15.7211 10.5397 15.529C10.0768 15.3369 9.6563 15.0554 9.30238 14.7005C8.94846 14.3457 8.66803 13.9245 8.47714 13.4611C8.28626 12.9977 8.18868 12.5012 8.19 12V12C8.19 11.2441 8.4143 10.5051 8.83449 9.87669C9.25468 9.24828 9.85187 8.75866 10.5505 8.46983C11.2491 8.181 12.0177 8.10594 12.7589 8.25415C13.5002 8.40236 14.1808 8.76717 14.7147 9.30241C15.2485 9.83764 15.6116 10.5192 15.7578 11.2609C15.9041 12.0026 15.827 12.771 15.5363 13.4688C15.2457 14.1666 14.7545 14.7625 14.125 15.1811C13.4955 15.5996 12.7559 15.822 12 15.82V15.82ZM16 8.93C15.7789 8.9066 15.5744 8.80222 15.4257 8.63697C15.277 8.47172 15.1947 8.25729 15.1947 8.035C15.1947 7.81271 15.277 7.59828 15.4257 7.43303C15.5744 7.26778 15.7789 7.1634 16 7.14V7.14C16.2211 7.1634 16.4256 7.26778 16.5743 7.43303C16.723 7.59828 16.8053 7.81271 16.8053 8.035C16.8053 8.25729 16.723 8.47172 16.5743 8.63697C16.4256 8.80222 16.2211 8.9066 16 8.93Z" fill="currentColor"/>
  </symbol>

  <symbol id="icon-menu" viewBox="0 0 24 24" fill="none">
    <path d="M3 6H21M3 12H21M3 18H21" stroke="currentColor" stroke-width="2" stroke-linecap="round"/>
  </symbol>

  <symbol id="icon-close" viewBox="0 0 24 24" fill="none">
    <path d="M6 6L18 18M18 6L6 18" stroke="currentColor" stroke-width="2" stroke-linecap="round"/>
  </symbol>
</svg>
